<?xml version="1.0" encoding="UTF-8" standalone="no"?>
<svg
   width="200"
   height="200"
   viewBox="0 0 120 120"
   version="1.1"
   id="svg2"
   sodipodi:docname="arx-path.svg"
   inkscape:version="1.4.2 (ebf0e940d0, 2025-05-08)"
   inkscape:export-filename="arx-path.png"
   inkscape:export-xdpi="96"
   inkscape:export-ydpi="96"
   xmlns:inkscape="http://www.inkscape.org/namespaces/inkscape"
   xmlns:sodipodi="http://sodipodi.sourceforge.net/DTD/sodipodi-0.dtd"
   xmlns:xlink="http://www.w3.org/1999/xlink"
   xmlns="http://www.w3.org/2000/svg"
   xmlns:svg="http://www.w3.org/2000/svg">
  <sodipodi:namedview
     id="namedview2"
     pagecolor="#505050"
     bordercolor="#eeeeee"
     borderopacity="1"
     inkscape:showpageshadow="0"
     inkscape:pageopacity="0"
     inkscape:pagecheckerboard="0"
     inkscape:deskcolor="#505050"
     inkscape:zoom="3.81"
     inkscape:cx="100.13123"
     inkscape:cy="100"
     inkscape:window-width="1920"
     inkscape:window-height="1027"
     inkscape:window-x="0"
     inkscape:window-y="0"
     inkscape:window-maximized="1"
     inkscape:current-layer="svg2" />
  <defs
     id="defs2">
    <linearGradient
       id="swatch5"
       inkscape:swatch="solid">
      <stop
         style="stop-color:#000000;stop-opacity:1;"
         offset="0"
         id="stop5" />
    </linearGradient>
    <linearGradient
       id="linearGradient1"
       inkscape:collect="always">
      <stop
         style="stop-color:#5a9cfe;stop-opacity:1;"
         offset="0"
         id="stop3" />
      <stop
         style="stop-color:#5a9cfe;stop-opacity:0;"
         offset="1"
         id="stop4" />
    </linearGradient>
    <!-- Moon gradient -->
    <radialGradient
       id="moonGradient"
       cx="50%"
       cy="50%"
       r="50%">
      <stop
         offset="0"
         stop-color="#fdfdfd"
         id="stop1"
         style="stop-color:#999999;stop-opacity:1;" />
      <stop
         offset="1"
         stop-color="#e0e0e0"
         id="stop2"
         style="stop-color:#3f3f3f;stop-opacity:1;" />
    </radialGradient>
    <linearGradient
       inkscape:collect="always"
       xlink:href="#linearGradient1"
       id="linearGradient4"
       x1="28.643293"
       y1="64.984131"
       x2="63.621419"
       y2="64.984131"
       gradientUnits="userSpaceOnUse" />
    <linearGradient
       inkscape:collect="always"
       xlink:href="#swatch5"
       id="linearGradient5"
       x1="28.643293"
       y1="64.984131"
       x2="63.621419"
       y2="64.984131"
       gradientUnits="userSpaceOnUse" />
  </defs>
  <!-- Full moon background -->
  <circle
     cx="60"
     cy="60"
     r="50"
     fill="url(#moonGradient)"
     stroke="#ffffff"
     stroke-width="1"
     id="circle2"
     style="stroke:#000000;stroke-opacity:1;stroke-width:1.0002;stroke-dasharray:none" />
  <!-- ARX Text -->
  <!-- Star -->
  <path
     d="m 90.458392,27.056315 c 0.06546,0.493371 -8.910638,3.36632 -9.21901,3.752205 -0.308372,0.385885 -0.890364,9.797844 -1.375076,9.858299 -0.493371,0.06546 -3.366321,-8.910638 -3.752205,-9.21901 -0.385885,-0.308372 -9.797844,-0.890364 -9.8583,-1.375076 -0.06546,-0.493371 8.910639,-3.36632 9.219011,-3.752205 0.308372,-0.385885 0.881704,-9.792844 1.375075,-9.858299 0.493372,-0.06546 3.366321,8.910638 3.752206,9.21901 0.385884,0.308372 9.797844,0.890364 9.858299,1.375076 z"
     fill="#a8cbfe"
     stroke="#ffffff"
     stroke-width="1"
     id="path2"
     style="paint-order:fill markers stroke;stroke-linecap:butt;stroke-linejoin:miter;stroke-miterlimit:4;stroke:#000000;stroke-opacity:1;stroke-width:0.48;stroke-dasharray:none;fill:#fefefe;fill-opacity:1" />
  <text
     xml:space="preserve"
     style="font-style:normal;font-variant:normal;font-weight:300;font-stretch:normal;font-size:19.2px;font-family:'Inter Tight';-inkscape-font-specification:'Inter Tight Light';text-align:center;writing-mode:lr-tb;direction:ltr;text-anchor:middle;display:none;fill:#ffffff;fill-opacity:1;fill-rule:nonzero;stroke:#000000;stroke-width:0.96;stroke-linecap:butt;stroke-linejoin:miter;stroke-dasharray:none;stroke-opacity:1;paint-order:markers stroke fill"
     x="60.009377"
     y="81.984375"
     id="text1"><tspan
       sodipodi:role="line"
       id="tspan1"
       style="fill:#ffffff;fill-opacity:1;fill-rule:nonzero;stroke:#000000;stroke-width:0.96;stroke-linecap:butt;stroke-linejoin:miter;stroke-dasharray:none;stroke-opacity:1;paint-order:markers stroke fill"
       x="60.009377"
       y="81.984375">ARX</tspan></text>
  <path
     d="m 44.151563,81.984375 h -1.340625 l 5.090626,-13.968751 h 1.359375 l 5.08125,13.968751 h -1.33125 L 48.623439,69.675 h -0.09375 z m 0.965625,-5.353125 h 6.928126 V 77.775 h -6.928126 z m 10.996876,5.353125 V 68.015624 h 4.51875 q 1.490625,0 2.484375,0.54375 0.99375,0.534375 1.5,1.481251 0.515625,0.946875 0.515625,2.165625 0,1.21875 -0.50625,2.15625 -0.50625,0.928125 -1.509375,1.453125 -0.99375,0.525 -2.465625,0.525 h -3.834375 v -1.1625 h 3.796875 q 1.096875,0 1.81875,-0.365625 0.721875,-0.365625 1.078125,-1.03125 0.365625,-0.665625 0.365625,-1.575 0,-0.91875 -0.365625,-1.603125 -0.365625,-0.684375 -1.0875,-1.059375 -0.721875,-0.375001 -1.828125,-0.375001 h -3.20625 v 12.815626 z m 8.11875,0 -3.39375,-6.309375 h 1.44375 l 3.43125,6.309375 z m 3.628125,-13.968751 3.8625,6.065626 h 0.09375 l 3.8625,-6.065626 h 1.509376 l -4.490626,6.993751 4.490626,6.975 h -1.509376 l -3.8625,-5.990625 h -0.09375 l -3.8625,5.990625 h -1.5 l 4.55625,-6.975 -4.55625,-6.993751 z"
     id="text6"
     style="font-weight:300;font-size:19.2px;font-family:'Inter Tight';-inkscape-font-specification:'Inter Tight Light';text-align:center;text-anchor:middle;fill:#ffffff;stroke:#000000;stroke-width:0.96;paint-order:markers stroke fill"
     aria-label="ARX" />
</svg>
